<?xml version="1.0" encoding="utf-8" standalone="no"?>
<!DOCTYPE svg PUBLIC "-//W3C//DTD SVG 1.1//EN"
  "http://www.w3.org/Graphics/SVG/1.1/DTD/svg11.dtd">
<!-- Created with matplotlib (https://matplotlib.org/) -->
<svg height="144pt" version="1.1" viewBox="0 0 216 144" width="216pt" xmlns="http://www.w3.org/2000/svg" xmlns:xlink="http://www.w3.org/1999/xlink">
 <defs>
  <style type="text/css">
*{stroke-linecap:butt;stroke-linejoin:round;}
  </style>
 </defs>
 <g id="figure_1">
  <g id="patch_1">
   <path d="M 0 144 
L 216 144 
L 216 0 
L 0 0 
z
" style="fill:none;"/>
  </g>
  <g id="axes_1">
   <g id="patch_2">
    <path d="M 50.55 96.2 
L 201.7 96.2 
L 201.7 14.8 
L 50.55 14.8 
z
" style="fill:none;"/>
   </g>
   <g id="PathCollection_1">
    <defs>
     <path d="M 0 3 
C 0.795609 3 1.55874 2.683901 2.12132 2.12132 
C 2.683901 1.55874 3 0.795609 3 0 
C 3 -0.795609 2.683901 -1.55874 2.12132 -2.12132 
C 1.55874 -2.683901 0.795609 -3 0 -3 
C -0.795609 -3 -1.55874 -2.683901 -2.12132 -2.12132 
C -2.683901 -1.55874 -3 -0.795609 -3 0 
C -3 0.795609 -2.683901 1.55874 -2.12132 2.12132 
C -1.55874 2.683901 -0.795609 3 0 3 
z
" id="m2197705c35" style="stroke:#008080;stroke-opacity:0.5;"/>
    </defs>
    <g clip-path="url(#p5a6a096e23)">
     <use style="fill:#008080;fill-opacity:0.5;stroke:#008080;stroke-opacity:0.5;" x="153.121652" xlink:href="#m2197705c35" y="26.28929"/>
     <use style="fill:#008080;fill-opacity:0.5;stroke:#008080;stroke-opacity:0.5;" x="96.7386" xlink:href="#m2197705c35" y="44.729203"/>
     <use style="fill:#008080;fill-opacity:0.5;stroke:#008080;stroke-opacity:0.5;" x="88.591907" xlink:href="#m2197705c35" y="42.061674"/>
     <use style="fill:#008080;fill-opacity:0.5;stroke:#008080;stroke-opacity:0.5;" x="133.176116" xlink:href="#m2197705c35" y="19.044469"/>
     <use style="fill:#008080;fill-opacity:0.5;stroke:#008080;stroke-opacity:0.5;" x="156.282032" xlink:href="#m2197705c35" y="29.157714"/>
     <use style="fill:#008080;fill-opacity:0.5;stroke:#008080;stroke-opacity:0.5;" x="115.559129" xlink:href="#m2197705c35" y="27.210286"/>
     <use style="fill:#008080;fill-opacity:0.5;stroke:#008080;stroke-opacity:0.5;" x="192.186371" xlink:href="#m2197705c35" y="72.519799"/>
     <use style="fill:#008080;fill-opacity:0.5;stroke:#008080;stroke-opacity:0.5;" x="151.522286" xlink:href="#m2197705c35" y="25.956763"/>
     <use style="fill:#008080;fill-opacity:0.5;stroke:#008080;stroke-opacity:0.5;" x="123.50487" xlink:href="#m2197705c35" y="21.587885"/>
     <use style="fill:#008080;fill-opacity:0.5;stroke:#008080;stroke-opacity:0.5;" x="111.300966" xlink:href="#m2197705c35" y="31.799444"/>
     <use style="fill:#008080;fill-opacity:0.5;stroke:#008080;stroke-opacity:0.5;" x="104.576234" xlink:href="#m2197705c35" y="28.045066"/>
     <use style="fill:#008080;fill-opacity:0.5;stroke:#008080;stroke-opacity:0.5;" x="157.598512" xlink:href="#m2197705c35" y="34.623875"/>
     <use style="fill:#008080;fill-opacity:0.5;stroke:#008080;stroke-opacity:0.5;" x="117.684268" xlink:href="#m2197705c35" y="34.002541"/>
     <use style="fill:#008080;fill-opacity:0.5;stroke:#008080;stroke-opacity:0.5;" x="65.62074" xlink:href="#m2197705c35" y="76.807341"/>
     <use style="fill:#008080;fill-opacity:0.5;stroke:#008080;stroke-opacity:0.5;" x="112.115354" xlink:href="#m2197705c35" y="29.609912"/>
     <use style="fill:#008080;fill-opacity:0.5;stroke:#008080;stroke-opacity:0.5;" x="158.827732" xlink:href="#m2197705c35" y="31.473023"/>
     <use style="fill:#008080;fill-opacity:0.5;stroke:#008080;stroke-opacity:0.5;" x="82.496477" xlink:href="#m2197705c35" y="58.720414"/>
     <use style="fill:#008080;fill-opacity:0.5;stroke:#008080;stroke-opacity:0.5;" x="81.529121" xlink:href="#m2197705c35" y="63.123704"/>
     <use style="fill:#008080;fill-opacity:0.5;stroke:#008080;stroke-opacity:0.5;" x="130.460446" xlink:href="#m2197705c35" y="17.303798"/>
     <use style="fill:#008080;fill-opacity:0.5;stroke:#008080;stroke-opacity:0.5;" x="130.4984" xlink:href="#m2197705c35" y="25.213841"/>
     <use style="fill:#008080;fill-opacity:0.5;stroke:#008080;stroke-opacity:0.5;" x="144.592914" xlink:href="#m2197705c35" y="17.308987"/>
     <use style="fill:#008080;fill-opacity:0.5;stroke:#008080;stroke-opacity:0.5;" x="174.140105" xlink:href="#m2197705c35" y="40.938581"/>
     <use style="fill:#008080;fill-opacity:0.5;stroke:#008080;stroke-opacity:0.5;" x="156.967202" xlink:href="#m2197705c35" y="31.04271"/>
     <use style="fill:#008080;fill-opacity:0.5;stroke:#008080;stroke-opacity:0.5;" x="141.38064" xlink:href="#m2197705c35" y="27.658492"/>
     <use style="fill:#008080;fill-opacity:0.5;stroke:#008080;stroke-opacity:0.5;" x="156.690743" xlink:href="#m2197705c35" y="32.572327"/>
     <use style="fill:#008080;fill-opacity:0.5;stroke:#008080;stroke-opacity:0.5;" x="101.797945" xlink:href="#m2197705c35" y="39.852406"/>
     <use style="fill:#008080;fill-opacity:0.5;stroke:#008080;stroke-opacity:0.5;" x="107.133505" xlink:href="#m2197705c35" y="22.48537"/>
     <use style="fill:#008080;fill-opacity:0.5;stroke:#008080;stroke-opacity:0.5;" x="88.785898" xlink:href="#m2197705c35" y="46.938477"/>
     <use style="fill:#008080;fill-opacity:0.5;stroke:#008080;stroke-opacity:0.5;" x="97.779435" xlink:href="#m2197705c35" y="33.687828"/>
     <use style="fill:#008080;fill-opacity:0.5;stroke:#008080;stroke-opacity:0.5;" x="144.12231" xlink:href="#m2197705c35" y="29.088875"/>
     <use style="fill:#008080;fill-opacity:0.5;stroke:#008080;stroke-opacity:0.5;" x="70.076511" xlink:href="#m2197705c35" y="72.793585"/>
     <use style="fill:#008080;fill-opacity:0.5;stroke:#008080;stroke-opacity:0.5;" x="117.014938" xlink:href="#m2197705c35" y="20.838509"/>
    </g>
   </g>
   <g id="matplotlib.axis_1">
    <g id="xtick_1">
     <g id="line2d_1">
      <defs>
       <path d="M 0 0 
L 0 3.5 
" id="mc5ea63f254" style="stroke:#000000;stroke-width:0.8;"/>
      </defs>
      <g>
       <use style="stroke:#000000;stroke-width:0.8;" x="57.420455" xlink:href="#mc5ea63f254" y="96.2"/>
      </g>
     </g>
     <g id="text_1">
      <!-- 0.0 -->
      <defs>
       <path d="M 31.78125 66.40625 
Q 24.171875 66.40625 20.328125 58.90625 
Q 16.5 51.421875 16.5 36.375 
Q 16.5 21.390625 20.328125 13.890625 
Q 24.171875 6.390625 31.78125 6.390625 
Q 39.453125 6.390625 43.28125 13.890625 
Q 47.125 21.390625 47.125 36.375 
Q 47.125 51.421875 43.28125 58.90625 
Q 39.453125 66.40625 31.78125 66.40625 
z
M 31.78125 74.21875 
Q 44.046875 74.21875 50.515625 64.515625 
Q 56.984375 54.828125 56.984375 36.375 
Q 56.984375 17.96875 50.515625 8.265625 
Q 44.046875 -1.421875 31.78125 -1.421875 
Q 19.53125 -1.421875 13.0625 8.265625 
Q 6.59375 17.96875 6.59375 36.375 
Q 6.59375 54.828125 13.0625 64.515625 
Q 19.53125 74.21875 31.78125 74.21875 
z
" id="DejaVuSans-48"/>
       <path d="M 10.6875 12.40625 
L 21 12.40625 
L 21 0 
L 10.6875 0 
z
" id="DejaVuSans-46"/>
      </defs>
      <g transform="translate(49.468892 110.798438)scale(0.1 -0.1)">
       <use xlink:href="#DejaVuSans-48"/>
       <use x="63.623047" xlink:href="#DejaVuSans-46"/>
       <use x="95.410156" xlink:href="#DejaVuSans-48"/>
      </g>
     </g>
    </g>
    <g id="xtick_2">
     <g id="line2d_2">
      <g>
       <use style="stroke:#000000;stroke-width:0.8;" x="91.772727" xlink:href="#mc5ea63f254" y="96.2"/>
      </g>
     </g>
     <g id="text_2">
      <!-- 2.5 -->
      <defs>
       <path d="M 19.1875 8.296875 
L 53.609375 8.296875 
L 53.609375 0 
L 7.328125 0 
L 7.328125 8.296875 
Q 12.9375 14.109375 22.625 23.890625 
Q 32.328125 33.6875 34.8125 36.53125 
Q 39.546875 41.84375 41.421875 45.53125 
Q 43.3125 49.21875 43.3125 52.78125 
Q 43.3125 58.59375 39.234375 62.25 
Q 35.15625 65.921875 28.609375 65.921875 
Q 23.96875 65.921875 18.8125 64.3125 
Q 13.671875 62.703125 7.8125 59.421875 
L 7.8125 69.390625 
Q 13.765625 71.78125 18.9375 73 
Q 24.125 74.21875 28.421875 74.21875 
Q 39.75 74.21875 46.484375 68.546875 
Q 53.21875 62.890625 53.21875 53.421875 
Q 53.21875 48.921875 51.53125 44.890625 
Q 49.859375 40.875 45.40625 35.40625 
Q 44.1875 33.984375 37.640625 27.21875 
Q 31.109375 20.453125 19.1875 8.296875 
z
" id="DejaVuSans-50"/>
       <path d="M 10.796875 72.90625 
L 49.515625 72.90625 
L 49.515625 64.59375 
L 19.828125 64.59375 
L 19.828125 46.734375 
Q 21.96875 47.46875 24.109375 47.828125 
Q 26.265625 48.1875 28.421875 48.1875 
Q 40.625 48.1875 47.75 41.5 
Q 54.890625 34.8125 54.890625 23.390625 
Q 54.890625 11.625 47.5625 5.09375 
Q 40.234375 -1.421875 26.90625 -1.421875 
Q 22.3125 -1.421875 17.546875 -0.640625 
Q 12.796875 0.140625 7.71875 1.703125 
L 7.71875 11.625 
Q 12.109375 9.234375 16.796875 8.0625 
Q 21.484375 6.890625 26.703125 6.890625 
Q 35.15625 6.890625 40.078125 11.328125 
Q 45.015625 15.765625 45.015625 23.390625 
Q 45.015625 31 40.078125 35.4375 
Q 35.15625 39.890625 26.703125 39.890625 
Q 22.75 39.890625 18.8125 39.015625 
Q 14.890625 38.140625 10.796875 36.28125 
z
" id="DejaVuSans-53"/>
      </defs>
      <g transform="translate(83.821165 110.798438)scale(0.1 -0.1)">
       <use xlink:href="#DejaVuSans-50"/>
       <use x="63.623047" xlink:href="#DejaVuSans-46"/>
       <use x="95.410156" xlink:href="#DejaVuSans-53"/>
      </g>
     </g>
    </g>
    <g id="xtick_3">
     <g id="line2d_3">
      <g>
       <use style="stroke:#000000;stroke-width:0.8;" x="126.125" xlink:href="#mc5ea63f254" y="96.2"/>
      </g>
     </g>
     <g id="text_3">
      <!-- 5.0 -->
      <g transform="translate(118.173438 110.798438)scale(0.1 -0.1)">
       <use xlink:href="#DejaVuSans-53"/>
       <use x="63.623047" xlink:href="#DejaVuSans-46"/>
       <use x="95.410156" xlink:href="#DejaVuSans-48"/>
      </g>
     </g>
    </g>
    <g id="xtick_4">
     <g id="line2d_4">
      <g>
       <use style="stroke:#000000;stroke-width:0.8;" x="160.477273" xlink:href="#mc5ea63f254" y="96.2"/>
      </g>
     </g>
     <g id="text_4">
      <!-- 7.5 -->
      <defs>
       <path d="M 8.203125 72.90625 
L 55.078125 72.90625 
L 55.078125 68.703125 
L 28.609375 0 
L 18.3125 0 
L 43.21875 64.59375 
L 8.203125 64.59375 
z
" id="DejaVuSans-55"/>
      </defs>
      <g transform="translate(152.52571 110.798438)scale(0.1 -0.1)">
       <use xlink:href="#DejaVuSans-55"/>
       <use x="63.623047" xlink:href="#DejaVuSans-46"/>
       <use x="95.410156" xlink:href="#DejaVuSans-53"/>
      </g>
     </g>
    </g>
    <g id="xtick_5">
     <g id="line2d_5">
      <g>
       <use style="stroke:#000000;stroke-width:0.8;" x="194.829545" xlink:href="#mc5ea63f254" y="96.2"/>
      </g>
     </g>
     <g id="text_5">
      <!-- 10.0 -->
      <defs>
       <path d="M 12.40625 8.296875 
L 28.515625 8.296875 
L 28.515625 63.921875 
L 10.984375 60.40625 
L 10.984375 69.390625 
L 28.421875 72.90625 
L 38.28125 72.90625 
L 38.28125 8.296875 
L 54.390625 8.296875 
L 54.390625 0 
L 12.40625 0 
z
" id="DejaVuSans-49"/>
      </defs>
      <g transform="translate(183.696733 110.798438)scale(0.1 -0.1)">
       <use xlink:href="#DejaVuSans-49"/>
       <use x="63.623047" xlink:href="#DejaVuSans-48"/>
       <use x="127.246094" xlink:href="#DejaVuSans-46"/>
       <use x="159.033203" xlink:href="#DejaVuSans-48"/>
      </g>
     </g>
    </g>
    <g id="text_6">
     <!-- $X$ -->
     <defs>
      <path d="M 13.71875 72.90625 
L 23.6875 72.90625 
L 36.1875 46.578125 
L 58.796875 72.90625 
L 70.3125 72.90625 
L 40.28125 38.09375 
L 58.40625 0 
L 48.484375 0 
L 33.796875 30.71875 
L 7.171875 0 
L -4.296875 0 
L 29.78125 39.203125 
z
" id="DejaVuSans-Oblique-88"/>
     </defs>
     <g transform="translate(120.605 129.035625)scale(0.16 -0.16)">
      <use transform="translate(0 0.09375)" xlink:href="#DejaVuSans-Oblique-88"/>
     </g>
    </g>
   </g>
   <g id="matplotlib.axis_2">
    <g id="ytick_1">
     <g id="line2d_6">
      <defs>
       <path d="M 0 0 
L -3.5 0 
" id="mc62d4f8ce1" style="stroke:#000000;stroke-width:0.8;"/>
      </defs>
      <g>
       <use style="stroke:#000000;stroke-width:0.8;" x="50.55" xlink:href="#mc62d4f8ce1" y="96.2"/>
      </g>
     </g>
     <g id="text_7">
      <!-- 0 -->
      <g transform="translate(37.1875 99.999219)scale(0.1 -0.1)">
       <use xlink:href="#DejaVuSans-48"/>
      </g>
     </g>
    </g>
    <g id="ytick_2">
     <g id="line2d_7">
      <g>
       <use style="stroke:#000000;stroke-width:0.8;" x="50.55" xlink:href="#mc62d4f8ce1" y="75.85"/>
      </g>
     </g>
     <g id="text_8">
      <!-- 5 -->
      <g transform="translate(37.1875 79.649219)scale(0.1 -0.1)">
       <use xlink:href="#DejaVuSans-53"/>
      </g>
     </g>
    </g>
    <g id="ytick_3">
     <g id="line2d_8">
      <g>
       <use style="stroke:#000000;stroke-width:0.8;" x="50.55" xlink:href="#mc62d4f8ce1" y="55.5"/>
      </g>
     </g>
     <g id="text_9">
      <!-- 10 -->
      <g transform="translate(30.825 59.299219)scale(0.1 -0.1)">
       <use xlink:href="#DejaVuSans-49"/>
       <use x="63.623047" xlink:href="#DejaVuSans-48"/>
      </g>
     </g>
    </g>
    <g id="ytick_4">
     <g id="line2d_9">
      <g>
       <use style="stroke:#000000;stroke-width:0.8;" x="50.55" xlink:href="#mc62d4f8ce1" y="35.15"/>
      </g>
     </g>
     <g id="text_10">
      <!-- 15 -->
      <g transform="translate(30.825 38.949219)scale(0.1 -0.1)">
       <use xlink:href="#DejaVuSans-49"/>
       <use x="63.623047" xlink:href="#DejaVuSans-53"/>
      </g>
     </g>
    </g>
    <g id="ytick_5">
     <g id="line2d_10">
      <g>
       <use style="stroke:#000000;stroke-width:0.8;" x="50.55" xlink:href="#mc62d4f8ce1" y="14.8"/>
      </g>
     </g>
     <g id="text_11">
      <!-- 20 -->
      <g transform="translate(30.825 18.599219)scale(0.1 -0.1)">
       <use xlink:href="#DejaVuSans-50"/>
       <use x="63.623047" xlink:href="#DejaVuSans-48"/>
      </g>
     </g>
    </g>
    <g id="text_12">
     <!-- $y$ -->
     <defs>
      <path d="M 24.8125 -5.078125 
Q 18.5625 -15.578125 14.625 -18.1875 
Q 10.6875 -20.796875 4.59375 -20.796875 
L -2.484375 -20.796875 
L -0.984375 -13.28125 
L 4.203125 -13.28125 
Q 7.953125 -13.28125 10.59375 -11.234375 
Q 13.234375 -9.1875 16.5 -3.21875 
L 19.28125 2 
L 7.171875 54.6875 
L 16.703125 54.6875 
L 25.78125 12.796875 
L 50.875 54.6875 
L 60.296875 54.6875 
z
" id="DejaVuSans-Oblique-121"/>
     </defs>
     <g transform="translate(23.465 60.3)rotate(-90)scale(0.16 -0.16)">
      <use transform="translate(0 0.3125)" xlink:href="#DejaVuSans-Oblique-121"/>
     </g>
    </g>
   </g>
   <g id="line2d_11">
    <path clip-path="url(#p5a6a096e23)" d="M 57.420455 49.262621 
L 194.829545 21.998319 
L 194.829545 21.998319 
" style="fill:none;stroke:#000000;stroke-linecap:square;stroke-width:2;"/>
   </g>
   <g id="patch_3">
    <path d="M 50.55 96.2 
L 50.55 14.8 
" style="fill:none;stroke:#000000;stroke-linecap:square;stroke-linejoin:miter;stroke-width:0.8;"/>
   </g>
   <g id="patch_4">
    <path d="M 201.7 96.2 
L 201.7 14.8 
" style="fill:none;stroke:#000000;stroke-linecap:square;stroke-linejoin:miter;stroke-width:0.8;"/>
   </g>
   <g id="patch_5">
    <path d="M 50.55 96.2 
L 201.7 96.2 
" style="fill:none;stroke:#000000;stroke-linecap:square;stroke-linejoin:miter;stroke-width:0.8;"/>
   </g>
   <g id="patch_6">
    <path d="M 50.55 14.8 
L 201.7 14.8 
" style="fill:none;stroke:#000000;stroke-linecap:square;stroke-linejoin:miter;stroke-width:0.8;"/>
   </g>
  </g>
 </g>
 <defs>
  <clipPath id="p5a6a096e23">
   <rect height="81.4" width="151.15" x="50.55" y="14.8"/>
  </clipPath>
 </defs>
</svg>
