<?xml version="1.0" encoding="utf-8" standalone="no"?>
<!DOCTYPE svg PUBLIC "-//W3C//DTD SVG 1.1//EN"
  "http://www.w3.org/Graphics/SVG/1.1/DTD/svg11.dtd">
<!-- Created with matplotlib (https://matplotlib.org/) -->
<svg height="180pt" version="1.1" viewBox="0 0 266.4 180" width="266.4pt" xmlns="http://www.w3.org/2000/svg" xmlns:xlink="http://www.w3.org/1999/xlink">
 <defs>
  <style type="text/css">
*{stroke-linecap:butt;stroke-linejoin:round;}
  </style>
 </defs>
 <g id="figure_1">
  <g id="patch_1">
   <path d="M 0 180 
L 266.4 180 
L 266.4 0 
L 0 0 
z
" style="fill:none;"/>
  </g>
  <g id="axes_1">
   <g id="patch_2">
    <path d="M 56.675 132.2 
L 252.1 132.2 
L 252.1 14.3 
L 56.675 14.3 
z
" style="fill:none;"/>
   </g>
   <g id="PathCollection_1">
    <defs>
     <path d="M 0 3 
C 0.795609 3 1.55874 2.683901 2.12132 2.12132 
C 2.683901 1.55874 3 0.795609 3 0 
C 3 -0.795609 2.683901 -1.55874 2.12132 -2.12132 
C 1.55874 -2.683901 0.795609 -3 0 -3 
C -0.795609 -3 -1.55874 -2.683901 -2.12132 -2.12132 
C -2.683901 -1.55874 -3 -0.795609 -3 0 
C -3 0.795609 -2.683901 1.55874 -2.12132 2.12132 
C -1.55874 2.683901 -0.795609 3 0 3 
z
" id="C0_0_6f95739b73"/>
    </defs>
    <g clip-path="url(#pf4a2272bab)">
     <use style="fill:#ff4500;fill-opacity:0.5;stroke:#ff4500;stroke-opacity:0.5;" x="189.292037" xlink:href="#C0_0_6f95739b73" y="125.401841"/>
    </g>
    <g clip-path="url(#pf4a2272bab)">
     <use style="fill:#008080;fill-opacity:0.5;stroke:#008080;stroke-opacity:0.5;" x="116.393209" xlink:href="#C0_0_6f95739b73" y="21.098159"/>
    </g>
    <g clip-path="url(#pf4a2272bab)">
     <use style="fill:#008080;fill-opacity:0.5;stroke:#008080;stroke-opacity:0.5;" x="105.860178" xlink:href="#C0_0_6f95739b73" y="21.098159"/>
    </g>
    <g clip-path="url(#pf4a2272bab)">
     <use style="fill:#ff4500;fill-opacity:0.5;stroke:#ff4500;stroke-opacity:0.5;" x="163.504035" xlink:href="#C0_0_6f95739b73" y="125.401841"/>
    </g>
    <g clip-path="url(#pf4a2272bab)">
     <use style="fill:#008080;fill-opacity:0.5;stroke:#008080;stroke-opacity:0.5;" x="193.378158" xlink:href="#C0_0_6f95739b73" y="21.098159"/>
    </g>
    <g clip-path="url(#pf4a2272bab)">
     <use style="fill:#ff4500;fill-opacity:0.5;stroke:#ff4500;stroke-opacity:0.5;" x="140.726664" xlink:href="#C0_0_6f95739b73" y="125.401841"/>
    </g>
    <g clip-path="url(#pf4a2272bab)">
     <use style="fill:#008080;fill-opacity:0.5;stroke:#008080;stroke-opacity:0.5;" x="239.79963" xlink:href="#C0_0_6f95739b73" y="21.098159"/>
    </g>
    <g clip-path="url(#pf4a2272bab)">
     <use style="fill:#ff4500;fill-opacity:0.5;stroke:#ff4500;stroke-opacity:0.5;" x="187.224183" xlink:href="#C0_0_6f95739b73" y="125.401841"/>
    </g>
    <g clip-path="url(#pf4a2272bab)">
     <use style="fill:#ff4500;fill-opacity:0.5;stroke:#ff4500;stroke-opacity:0.5;" x="150.999879" xlink:href="#C0_0_6f95739b73" y="125.401841"/>
    </g>
    <g clip-path="url(#pf4a2272bab)">
     <use style="fill:#ff4500;fill-opacity:0.5;stroke:#ff4500;stroke-opacity:0.5;" x="135.221196" xlink:href="#C0_0_6f95739b73" y="125.401841"/>
    </g>
    <g clip-path="url(#pf4a2272bab)">
     <use style="fill:#ff4500;fill-opacity:0.5;stroke:#ff4500;stroke-opacity:0.5;" x="126.526649" xlink:href="#C0_0_6f95739b73" y="125.401841"/>
    </g>
    <g clip-path="url(#pf4a2272bab)">
     <use style="fill:#008080;fill-opacity:0.5;stroke:#008080;stroke-opacity:0.5;" x="195.080263" xlink:href="#C0_0_6f95739b73" y="21.098159"/>
    </g>
    <g clip-path="url(#pf4a2272bab)">
     <use style="fill:#ff4500;fill-opacity:0.5;stroke:#ff4500;stroke-opacity:0.5;" x="143.474301" xlink:href="#C0_0_6f95739b73" y="125.401841"/>
    </g>
    <g clip-path="url(#pf4a2272bab)">
     <use style="fill:#008080;fill-opacity:0.5;stroke:#008080;stroke-opacity:0.5;" x="76.160275" xlink:href="#C0_0_6f95739b73" y="21.098159"/>
    </g>
    <g clip-path="url(#pf4a2272bab)">
     <use style="fill:#ff4500;fill-opacity:0.5;stroke:#ff4500;stroke-opacity:0.5;" x="136.274135" xlink:href="#C0_0_6f95739b73" y="125.401841"/>
    </g>
    <g clip-path="url(#pf4a2272bab)">
     <use style="fill:#008080;fill-opacity:0.5;stroke:#008080;stroke-opacity:0.5;" x="196.669547" xlink:href="#C0_0_6f95739b73" y="21.098159"/>
    </g>
    <g clip-path="url(#pf4a2272bab)">
     <use style="fill:#008080;fill-opacity:0.5;stroke:#008080;stroke-opacity:0.5;" x="97.979269" xlink:href="#C0_0_6f95739b73" y="21.098159"/>
    </g>
    <g clip-path="url(#pf4a2272bab)">
     <use style="fill:#008080;fill-opacity:0.5;stroke:#008080;stroke-opacity:0.5;" x="96.728554" xlink:href="#C0_0_6f95739b73" y="21.098159"/>
    </g>
    <g clip-path="url(#pf4a2272bab)">
     <use style="fill:#ff4500;fill-opacity:0.5;stroke:#ff4500;stroke-opacity:0.5;" x="159.992888" xlink:href="#C0_0_6f95739b73" y="125.401841"/>
    </g>
    <g clip-path="url(#pf4a2272bab)">
     <use style="fill:#ff4500;fill-opacity:0.5;stroke:#ff4500;stroke-opacity:0.5;" x="160.04196" xlink:href="#C0_0_6f95739b73" y="125.401841"/>
    </g>
    <g clip-path="url(#pf4a2272bab)">
     <use style="fill:#ff4500;fill-opacity:0.5;stroke:#ff4500;stroke-opacity:0.5;" x="178.265052" xlink:href="#C0_0_6f95739b73" y="125.401841"/>
    </g>
    <g clip-path="url(#pf4a2272bab)">
     <use style="fill:#008080;fill-opacity:0.5;stroke:#008080;stroke-opacity:0.5;" x="216.467235" xlink:href="#C0_0_6f95739b73" y="21.098159"/>
    </g>
    <g clip-path="url(#pf4a2272bab)">
     <use style="fill:#008080;fill-opacity:0.5;stroke:#008080;stroke-opacity:0.5;" x="194.264029" xlink:href="#C0_0_6f95739b73" y="21.098159"/>
    </g>
    <g clip-path="url(#pf4a2272bab)">
     <use style="fill:#ff4500;fill-opacity:0.5;stroke:#ff4500;stroke-opacity:0.5;" x="174.111836" xlink:href="#C0_0_6f95739b73" y="125.401841"/>
    </g>
    <g clip-path="url(#pf4a2272bab)">
     <use style="fill:#008080;fill-opacity:0.5;stroke:#008080;stroke-opacity:0.5;" x="193.906589" xlink:href="#C0_0_6f95739b73" y="21.098159"/>
    </g>
    <g clip-path="url(#pf4a2272bab)">
     <use style="fill:#ff4500;fill-opacity:0.5;stroke:#ff4500;stroke-opacity:0.5;" x="122.934542" xlink:href="#C0_0_6f95739b73" y="125.401841"/>
    </g>
    <g clip-path="url(#pf4a2272bab)">
     <use style="fill:#ff4500;fill-opacity:0.5;stroke:#ff4500;stroke-opacity:0.5;" x="129.832998" xlink:href="#C0_0_6f95739b73" y="125.401841"/>
    </g>
    <g clip-path="url(#pf4a2272bab)">
     <use style="fill:#008080;fill-opacity:0.5;stroke:#008080;stroke-opacity:0.5;" x="106.110993" xlink:href="#C0_0_6f95739b73" y="21.098159"/>
    </g>
    <g clip-path="url(#pf4a2272bab)">
     <use style="fill:#008080;fill-opacity:0.5;stroke:#008080;stroke-opacity:0.5;" x="117.738925" xlink:href="#C0_0_6f95739b73" y="21.098159"/>
    </g>
    <g clip-path="url(#pf4a2272bab)">
     <use style="fill:#ff4500;fill-opacity:0.5;stroke:#ff4500;stroke-opacity:0.5;" x="177.656599" xlink:href="#C0_0_6f95739b73" y="125.401841"/>
    </g>
    <g clip-path="url(#pf4a2272bab)">
     <use style="fill:#008080;fill-opacity:0.5;stroke:#008080;stroke-opacity:0.5;" x="81.921234" xlink:href="#C0_0_6f95739b73" y="21.098159"/>
    </g>
    <g clip-path="url(#pf4a2272bab)">
     <use style="fill:#ff4500;fill-opacity:0.5;stroke:#ff4500;stroke-opacity:0.5;" x="142.608911" xlink:href="#C0_0_6f95739b73" y="125.401841"/>
    </g>
   </g>
   <g id="matplotlib.axis_1">
    <g id="xtick_1">
     <g id="line2d_1">
      <defs>
       <path d="M 0 0 
L 0 3.5 
" id="m436775e506" style="stroke:#000000;stroke-width:0.8;"/>
      </defs>
      <g>
       <use style="stroke:#000000;stroke-width:0.8;" x="65.557955" xlink:href="#m436775e506" y="132.2"/>
      </g>
     </g>
     <g id="text_1">
      <!-- 0 -->
      <defs>
       <path d="M 31.78125 66.40625 
Q 24.171875 66.40625 20.328125 58.90625 
Q 16.5 51.421875 16.5 36.375 
Q 16.5 21.390625 20.328125 13.890625 
Q 24.171875 6.390625 31.78125 6.390625 
Q 39.453125 6.390625 43.28125 13.890625 
Q 47.125 21.390625 47.125 36.375 
Q 47.125 51.421875 43.28125 58.90625 
Q 39.453125 66.40625 31.78125 66.40625 
z
M 31.78125 74.21875 
Q 44.046875 74.21875 50.515625 64.515625 
Q 56.984375 54.828125 56.984375 36.375 
Q 56.984375 17.96875 50.515625 8.265625 
Q 44.046875 -1.421875 31.78125 -1.421875 
Q 19.53125 -1.421875 13.0625 8.265625 
Q 6.59375 17.96875 6.59375 36.375 
Q 6.59375 54.828125 13.0625 64.515625 
Q 19.53125 74.21875 31.78125 74.21875 
z
" id="DejaVuSans-48"/>
      </defs>
      <g transform="translate(62.376705 146.798438)scale(0.1 -0.1)">
       <use xlink:href="#DejaVuSans-48"/>
      </g>
     </g>
    </g>
    <g id="xtick_2">
     <g id="line2d_2">
      <g>
       <use style="stroke:#000000;stroke-width:0.8;" x="101.089773" xlink:href="#m436775e506" y="132.2"/>
      </g>
     </g>
     <g id="text_2">
      <!-- 2 -->
      <defs>
       <path d="M 19.1875 8.296875 
L 53.609375 8.296875 
L 53.609375 0 
L 7.328125 0 
L 7.328125 8.296875 
Q 12.9375 14.109375 22.625 23.890625 
Q 32.328125 33.6875 34.8125 36.53125 
Q 39.546875 41.84375 41.421875 45.53125 
Q 43.3125 49.21875 43.3125 52.78125 
Q 43.3125 58.59375 39.234375 62.25 
Q 35.15625 65.921875 28.609375 65.921875 
Q 23.96875 65.921875 18.8125 64.3125 
Q 13.671875 62.703125 7.8125 59.421875 
L 7.8125 69.390625 
Q 13.765625 71.78125 18.9375 73 
Q 24.125 74.21875 28.421875 74.21875 
Q 39.75 74.21875 46.484375 68.546875 
Q 53.21875 62.890625 53.21875 53.421875 
Q 53.21875 48.921875 51.53125 44.890625 
Q 49.859375 40.875 45.40625 35.40625 
Q 44.1875 33.984375 37.640625 27.21875 
Q 31.109375 20.453125 19.1875 8.296875 
z
" id="DejaVuSans-50"/>
      </defs>
      <g transform="translate(97.908523 146.798438)scale(0.1 -0.1)">
       <use xlink:href="#DejaVuSans-50"/>
      </g>
     </g>
    </g>
    <g id="xtick_3">
     <g id="line2d_3">
      <g>
       <use style="stroke:#000000;stroke-width:0.8;" x="136.621591" xlink:href="#m436775e506" y="132.2"/>
      </g>
     </g>
     <g id="text_3">
      <!-- 4 -->
      <defs>
       <path d="M 37.796875 64.3125 
L 12.890625 25.390625 
L 37.796875 25.390625 
z
M 35.203125 72.90625 
L 47.609375 72.90625 
L 47.609375 25.390625 
L 58.015625 25.390625 
L 58.015625 17.1875 
L 47.609375 17.1875 
L 47.609375 0 
L 37.796875 0 
L 37.796875 17.1875 
L 4.890625 17.1875 
L 4.890625 26.703125 
z
" id="DejaVuSans-52"/>
      </defs>
      <g transform="translate(133.440341 146.798438)scale(0.1 -0.1)">
       <use xlink:href="#DejaVuSans-52"/>
      </g>
     </g>
    </g>
    <g id="xtick_4">
     <g id="line2d_4">
      <g>
       <use style="stroke:#000000;stroke-width:0.8;" x="172.153409" xlink:href="#m436775e506" y="132.2"/>
      </g>
     </g>
     <g id="text_4">
      <!-- 6 -->
      <defs>
       <path d="M 33.015625 40.375 
Q 26.375 40.375 22.484375 35.828125 
Q 18.609375 31.296875 18.609375 23.390625 
Q 18.609375 15.53125 22.484375 10.953125 
Q 26.375 6.390625 33.015625 6.390625 
Q 39.65625 6.390625 43.53125 10.953125 
Q 47.40625 15.53125 47.40625 23.390625 
Q 47.40625 31.296875 43.53125 35.828125 
Q 39.65625 40.375 33.015625 40.375 
z
M 52.59375 71.296875 
L 52.59375 62.3125 
Q 48.875 64.0625 45.09375 64.984375 
Q 41.3125 65.921875 37.59375 65.921875 
Q 27.828125 65.921875 22.671875 59.328125 
Q 17.53125 52.734375 16.796875 39.40625 
Q 19.671875 43.65625 24.015625 45.921875 
Q 28.375 48.1875 33.59375 48.1875 
Q 44.578125 48.1875 50.953125 41.515625 
Q 57.328125 34.859375 57.328125 23.390625 
Q 57.328125 12.15625 50.6875 5.359375 
Q 44.046875 -1.421875 33.015625 -1.421875 
Q 20.359375 -1.421875 13.671875 8.265625 
Q 6.984375 17.96875 6.984375 36.375 
Q 6.984375 53.65625 15.1875 63.9375 
Q 23.390625 74.21875 37.203125 74.21875 
Q 40.921875 74.21875 44.703125 73.484375 
Q 48.484375 72.75 52.59375 71.296875 
z
" id="DejaVuSans-54"/>
      </defs>
      <g transform="translate(168.972159 146.798438)scale(0.1 -0.1)">
       <use xlink:href="#DejaVuSans-54"/>
      </g>
     </g>
    </g>
    <g id="xtick_5">
     <g id="line2d_5">
      <g>
       <use style="stroke:#000000;stroke-width:0.8;" x="207.685227" xlink:href="#m436775e506" y="132.2"/>
      </g>
     </g>
     <g id="text_5">
      <!-- 8 -->
      <defs>
       <path d="M 31.78125 34.625 
Q 24.75 34.625 20.71875 30.859375 
Q 16.703125 27.09375 16.703125 20.515625 
Q 16.703125 13.921875 20.71875 10.15625 
Q 24.75 6.390625 31.78125 6.390625 
Q 38.8125 6.390625 42.859375 10.171875 
Q 46.921875 13.96875 46.921875 20.515625 
Q 46.921875 27.09375 42.890625 30.859375 
Q 38.875 34.625 31.78125 34.625 
z
M 21.921875 38.8125 
Q 15.578125 40.375 12.03125 44.71875 
Q 8.5 49.078125 8.5 55.328125 
Q 8.5 64.0625 14.71875 69.140625 
Q 20.953125 74.21875 31.78125 74.21875 
Q 42.671875 74.21875 48.875 69.140625 
Q 55.078125 64.0625 55.078125 55.328125 
Q 55.078125 49.078125 51.53125 44.71875 
Q 48 40.375 41.703125 38.8125 
Q 48.828125 37.15625 52.796875 32.3125 
Q 56.78125 27.484375 56.78125 20.515625 
Q 56.78125 9.90625 50.3125 4.234375 
Q 43.84375 -1.421875 31.78125 -1.421875 
Q 19.734375 -1.421875 13.25 4.234375 
Q 6.78125 9.90625 6.78125 20.515625 
Q 6.78125 27.484375 10.78125 32.3125 
Q 14.796875 37.15625 21.921875 38.8125 
z
M 18.3125 54.390625 
Q 18.3125 48.734375 21.84375 45.5625 
Q 25.390625 42.390625 31.78125 42.390625 
Q 38.140625 42.390625 41.71875 45.5625 
Q 45.3125 48.734375 45.3125 54.390625 
Q 45.3125 60.0625 41.71875 63.234375 
Q 38.140625 66.40625 31.78125 66.40625 
Q 25.390625 66.40625 21.84375 63.234375 
Q 18.3125 60.0625 18.3125 54.390625 
z
" id="DejaVuSans-56"/>
      </defs>
      <g transform="translate(204.503977 146.798438)scale(0.1 -0.1)">
       <use xlink:href="#DejaVuSans-56"/>
      </g>
     </g>
    </g>
    <g id="xtick_6">
     <g id="line2d_6">
      <g>
       <use style="stroke:#000000;stroke-width:0.8;" x="243.217045" xlink:href="#m436775e506" y="132.2"/>
      </g>
     </g>
     <g id="text_6">
      <!-- 10 -->
      <defs>
       <path d="M 12.40625 8.296875 
L 28.515625 8.296875 
L 28.515625 63.921875 
L 10.984375 60.40625 
L 10.984375 69.390625 
L 28.421875 72.90625 
L 38.28125 72.90625 
L 38.28125 8.296875 
L 54.390625 8.296875 
L 54.390625 0 
L 12.40625 0 
z
" id="DejaVuSans-49"/>
      </defs>
      <g transform="translate(236.854545 146.798438)scale(0.1 -0.1)">
       <use xlink:href="#DejaVuSans-49"/>
       <use x="63.623047" xlink:href="#DejaVuSans-48"/>
      </g>
     </g>
    </g>
    <g id="text_7">
     <!-- $X$ -->
     <defs>
      <path d="M 13.71875 72.90625 
L 23.6875 72.90625 
L 36.1875 46.578125 
L 58.796875 72.90625 
L 70.3125 72.90625 
L 40.28125 38.09375 
L 58.40625 0 
L 48.484375 0 
L 33.796875 30.71875 
L 7.171875 0 
L -4.296875 0 
L 29.78125 39.203125 
z
" id="DejaVuSans-Oblique-88"/>
     </defs>
     <g transform="translate(148.8675 165.035625)scale(0.16 -0.16)">
      <use transform="translate(0 0.09375)" xlink:href="#DejaVuSans-Oblique-88"/>
     </g>
    </g>
   </g>
   <g id="matplotlib.axis_2">
    <g id="ytick_1">
     <g id="line2d_7">
      <defs>
       <path d="M 0 0 
L -3.5 0 
" id="m6a40d5c06f" style="stroke:#000000;stroke-width:0.8;"/>
      </defs>
      <g>
       <use style="stroke:#000000;stroke-width:0.8;" x="56.675" xlink:href="#m6a40d5c06f" y="125.401841"/>
      </g>
     </g>
     <g id="text_8">
      <!-- 0.00 -->
      <defs>
       <path d="M 10.6875 12.40625 
L 21 12.40625 
L 21 0 
L 10.6875 0 
z
" id="DejaVuSans-46"/>
      </defs>
      <g transform="translate(27.409375 129.201059)scale(0.1 -0.1)">
       <use xlink:href="#DejaVuSans-48"/>
       <use x="63.623047" xlink:href="#DejaVuSans-46"/>
       <use x="95.410156" xlink:href="#DejaVuSans-48"/>
       <use x="159.033203" xlink:href="#DejaVuSans-48"/>
      </g>
     </g>
    </g>
    <g id="ytick_2">
     <g id="line2d_8">
      <g>
       <use style="stroke:#000000;stroke-width:0.8;" x="56.675" xlink:href="#m6a40d5c06f" y="99.32592"/>
      </g>
     </g>
     <g id="text_9">
      <!-- 0.25 -->
      <defs>
       <path d="M 10.796875 72.90625 
L 49.515625 72.90625 
L 49.515625 64.59375 
L 19.828125 64.59375 
L 19.828125 46.734375 
Q 21.96875 47.46875 24.109375 47.828125 
Q 26.265625 48.1875 28.421875 48.1875 
Q 40.625 48.1875 47.75 41.5 
Q 54.890625 34.8125 54.890625 23.390625 
Q 54.890625 11.625 47.5625 5.09375 
Q 40.234375 -1.421875 26.90625 -1.421875 
Q 22.3125 -1.421875 17.546875 -0.640625 
Q 12.796875 0.140625 7.71875 1.703125 
L 7.71875 11.625 
Q 12.109375 9.234375 16.796875 8.0625 
Q 21.484375 6.890625 26.703125 6.890625 
Q 35.15625 6.890625 40.078125 11.328125 
Q 45.015625 15.765625 45.015625 23.390625 
Q 45.015625 31 40.078125 35.4375 
Q 35.15625 39.890625 26.703125 39.890625 
Q 22.75 39.890625 18.8125 39.015625 
Q 14.890625 38.140625 10.796875 36.28125 
z
" id="DejaVuSans-53"/>
      </defs>
      <g transform="translate(27.409375 103.125139)scale(0.1 -0.1)">
       <use xlink:href="#DejaVuSans-48"/>
       <use x="63.623047" xlink:href="#DejaVuSans-46"/>
       <use x="95.410156" xlink:href="#DejaVuSans-50"/>
       <use x="159.033203" xlink:href="#DejaVuSans-53"/>
      </g>
     </g>
    </g>
    <g id="ytick_3">
     <g id="line2d_9">
      <g>
       <use style="stroke:#000000;stroke-width:0.8;" x="56.675" xlink:href="#m6a40d5c06f" y="73.25"/>
      </g>
     </g>
     <g id="text_10">
      <!-- 0.50 -->
      <g transform="translate(27.409375 77.049219)scale(0.1 -0.1)">
       <use xlink:href="#DejaVuSans-48"/>
       <use x="63.623047" xlink:href="#DejaVuSans-46"/>
       <use x="95.410156" xlink:href="#DejaVuSans-53"/>
       <use x="159.033203" xlink:href="#DejaVuSans-48"/>
      </g>
     </g>
    </g>
    <g id="ytick_4">
     <g id="line2d_10">
      <g>
       <use style="stroke:#000000;stroke-width:0.8;" x="56.675" xlink:href="#m6a40d5c06f" y="47.17408"/>
      </g>
     </g>
     <g id="text_11">
      <!-- 0.75 -->
      <defs>
       <path d="M 8.203125 72.90625 
L 55.078125 72.90625 
L 55.078125 68.703125 
L 28.609375 0 
L 18.3125 0 
L 43.21875 64.59375 
L 8.203125 64.59375 
z
" id="DejaVuSans-55"/>
      </defs>
      <g transform="translate(27.409375 50.973298)scale(0.1 -0.1)">
       <use xlink:href="#DejaVuSans-48"/>
       <use x="63.623047" xlink:href="#DejaVuSans-46"/>
       <use x="95.410156" xlink:href="#DejaVuSans-55"/>
       <use x="159.033203" xlink:href="#DejaVuSans-53"/>
      </g>
     </g>
    </g>
    <g id="ytick_5">
     <g id="line2d_11">
      <g>
       <use style="stroke:#000000;stroke-width:0.8;" x="56.675" xlink:href="#m6a40d5c06f" y="21.098159"/>
      </g>
     </g>
     <g id="text_12">
      <!-- 1.00 -->
      <g transform="translate(27.409375 24.897378)scale(0.1 -0.1)">
       <use xlink:href="#DejaVuSans-49"/>
       <use x="63.623047" xlink:href="#DejaVuSans-46"/>
       <use x="95.410156" xlink:href="#DejaVuSans-48"/>
       <use x="159.033203" xlink:href="#DejaVuSans-48"/>
      </g>
     </g>
    </g>
    <g id="text_13">
     <!-- $P(y)=$"Yes" -->
     <defs>
      <path d="M 16.890625 72.90625 
L 39.703125 72.90625 
Q 49.65625 72.90625 54.875 68.265625 
Q 60.109375 63.625 60.109375 54.6875 
Q 60.109375 42.671875 52.390625 35.984375 
Q 44.671875 29.296875 30.71875 29.296875 
L 18.3125 29.296875 
L 12.59375 0 
L 2.6875 0 
z
M 25.203125 64.796875 
L 19.921875 37.40625 
L 32.328125 37.40625 
Q 40.71875 37.40625 45.203125 41.703125 
Q 49.703125 46 49.703125 54 
Q 49.703125 59.125 46.65625 61.953125 
Q 43.609375 64.796875 38.09375 64.796875 
z
" id="DejaVuSans-Oblique-80"/>
      <path d="M 31 75.875 
Q 24.46875 64.65625 21.28125 53.65625 
Q 18.109375 42.671875 18.109375 31.390625 
Q 18.109375 20.125 21.3125 9.0625 
Q 24.515625 -2 31 -13.1875 
L 23.1875 -13.1875 
Q 15.875 -1.703125 12.234375 9.375 
Q 8.59375 20.453125 8.59375 31.390625 
Q 8.59375 42.28125 12.203125 53.3125 
Q 15.828125 64.359375 23.1875 75.875 
z
" id="DejaVuSans-40"/>
      <path d="M 24.8125 -5.078125 
Q 18.5625 -15.578125 14.625 -18.1875 
Q 10.6875 -20.796875 4.59375 -20.796875 
L -2.484375 -20.796875 
L -0.984375 -13.28125 
L 4.203125 -13.28125 
Q 7.953125 -13.28125 10.59375 -11.234375 
Q 13.234375 -9.1875 16.5 -3.21875 
L 19.28125 2 
L 7.171875 54.6875 
L 16.703125 54.6875 
L 25.78125 12.796875 
L 50.875 54.6875 
L 60.296875 54.6875 
z
" id="DejaVuSans-Oblique-121"/>
      <path d="M 8.015625 75.875 
L 15.828125 75.875 
Q 23.140625 64.359375 26.78125 53.3125 
Q 30.421875 42.28125 30.421875 31.390625 
Q 30.421875 20.453125 26.78125 9.375 
Q 23.140625 -1.703125 15.828125 -13.1875 
L 8.015625 -13.1875 
Q 14.5 -2 17.703125 9.0625 
Q 20.90625 20.125 20.90625 31.390625 
Q 20.90625 42.671875 17.703125 53.65625 
Q 14.5 64.65625 8.015625 75.875 
z
" id="DejaVuSans-41"/>
      <path d="M 10.59375 45.40625 
L 73.1875 45.40625 
L 73.1875 37.203125 
L 10.59375 37.203125 
z
M 10.59375 25.484375 
L 73.1875 25.484375 
L 73.1875 17.1875 
L 10.59375 17.1875 
z
" id="DejaVuSans-61"/>
      <path d="M 17.921875 72.90625 
L 17.921875 45.796875 
L 9.625 45.796875 
L 9.625 72.90625 
z
M 36.375 72.90625 
L 36.375 45.796875 
L 28.078125 45.796875 
L 28.078125 72.90625 
z
" id="DejaVuSans-34"/>
      <path d="M -0.203125 72.90625 
L 10.40625 72.90625 
L 30.609375 42.921875 
L 50.6875 72.90625 
L 61.28125 72.90625 
L 35.5 34.71875 
L 35.5 0 
L 25.59375 0 
L 25.59375 34.71875 
z
" id="DejaVuSans-89"/>
      <path d="M 56.203125 29.59375 
L 56.203125 25.203125 
L 14.890625 25.203125 
Q 15.484375 15.921875 20.484375 11.0625 
Q 25.484375 6.203125 34.421875 6.203125 
Q 39.59375 6.203125 44.453125 7.46875 
Q 49.3125 8.734375 54.109375 11.28125 
L 54.109375 2.78125 
Q 49.265625 0.734375 44.1875 -0.34375 
Q 39.109375 -1.421875 33.890625 -1.421875 
Q 20.796875 -1.421875 13.15625 6.1875 
Q 5.515625 13.8125 5.515625 26.8125 
Q 5.515625 40.234375 12.765625 48.109375 
Q 20.015625 56 32.328125 56 
Q 43.359375 56 49.78125 48.890625 
Q 56.203125 41.796875 56.203125 29.59375 
z
M 47.21875 32.234375 
Q 47.125 39.59375 43.09375 43.984375 
Q 39.0625 48.390625 32.421875 48.390625 
Q 24.90625 48.390625 20.390625 44.140625 
Q 15.875 39.890625 15.1875 32.171875 
z
" id="DejaVuSans-101"/>
      <path d="M 44.28125 53.078125 
L 44.28125 44.578125 
Q 40.484375 46.53125 36.375 47.5 
Q 32.28125 48.484375 27.875 48.484375 
Q 21.1875 48.484375 17.84375 46.4375 
Q 14.5 44.390625 14.5 40.28125 
Q 14.5 37.15625 16.890625 35.375 
Q 19.28125 33.59375 26.515625 31.984375 
L 29.59375 31.296875 
Q 39.15625 29.25 43.1875 25.515625 
Q 47.21875 21.78125 47.21875 15.09375 
Q 47.21875 7.46875 41.1875 3.015625 
Q 35.15625 -1.421875 24.609375 -1.421875 
Q 20.21875 -1.421875 15.453125 -0.5625 
Q 10.6875 0.296875 5.421875 2 
L 5.421875 11.28125 
Q 10.40625 8.6875 15.234375 7.390625 
Q 20.0625 6.109375 24.8125 6.109375 
Q 31.15625 6.109375 34.5625 8.28125 
Q 37.984375 10.453125 37.984375 14.40625 
Q 37.984375 18.0625 35.515625 20.015625 
Q 33.0625 21.96875 24.703125 23.78125 
L 21.578125 24.515625 
Q 13.234375 26.265625 9.515625 29.90625 
Q 5.8125 33.546875 5.8125 39.890625 
Q 5.8125 47.609375 11.28125 51.796875 
Q 16.75 56 26.8125 56 
Q 31.78125 56 36.171875 55.265625 
Q 40.578125 54.546875 44.28125 53.078125 
z
" id="DejaVuSans-115"/>
     </defs>
     <g transform="translate(20.049375 120.21)rotate(-90)scale(0.16 -0.16)">
      <use transform="translate(0 0.125)" xlink:href="#DejaVuSans-Oblique-80"/>
      <use transform="translate(60.302734 0.125)" xlink:href="#DejaVuSans-40"/>
      <use transform="translate(99.316406 0.125)" xlink:href="#DejaVuSans-Oblique-121"/>
      <use transform="translate(158.496094 0.125)" xlink:href="#DejaVuSans-41"/>
      <use transform="translate(216.992188 0.125)" xlink:href="#DejaVuSans-61"/>
      <use transform="translate(320.263672 0.125)" xlink:href="#DejaVuSans-34"/>
      <use transform="translate(366.259766 0.125)" xlink:href="#DejaVuSans-89"/>
      <use transform="translate(427.34375 0.125)" xlink:href="#DejaVuSans-101"/>
      <use transform="translate(488.867188 0.125)" xlink:href="#DejaVuSans-115"/>
      <use transform="translate(540.966797 0.125)" xlink:href="#DejaVuSans-34"/>
     </g>
    </g>
   </g>
   <g id="line2d_12">
    <path clip-path="url(#pf4a2272bab)" d="M 65.557955 70.792423 
L 243.217045 83.163483 
L 243.217045 83.163483 
" style="fill:none;stroke:#000000;stroke-linecap:square;stroke-width:2;"/>
   </g>
   <g id="patch_3">
    <path d="M 56.675 132.2 
L 56.675 14.3 
" style="fill:none;stroke:#000000;stroke-linecap:square;stroke-linejoin:miter;stroke-width:0.8;"/>
   </g>
   <g id="patch_4">
    <path d="M 252.1 132.2 
L 252.1 14.3 
" style="fill:none;stroke:#000000;stroke-linecap:square;stroke-linejoin:miter;stroke-width:0.8;"/>
   </g>
   <g id="patch_5">
    <path d="M 56.675 132.2 
L 252.1 132.2 
" style="fill:none;stroke:#000000;stroke-linecap:square;stroke-linejoin:miter;stroke-width:0.8;"/>
   </g>
   <g id="patch_6">
    <path d="M 56.675 14.3 
L 252.1 14.3 
" style="fill:none;stroke:#000000;stroke-linecap:square;stroke-linejoin:miter;stroke-width:0.8;"/>
   </g>
  </g>
 </g>
 <defs>
  <clipPath id="pf4a2272bab">
   <rect height="117.9" width="195.425" x="56.675" y="14.3"/>
  </clipPath>
 </defs>
</svg>
