<?xml version="1.0" encoding="utf-8" standalone="no"?>
<!DOCTYPE svg PUBLIC "-//W3C//DTD SVG 1.1//EN"
  "http://www.w3.org/Graphics/SVG/1.1/DTD/svg11.dtd">
<!-- Created with matplotlib (https://matplotlib.org/) -->
<svg height="180pt" version="1.1" viewBox="0 0 266.4 180" width="266.4pt" xmlns="http://www.w3.org/2000/svg" xmlns:xlink="http://www.w3.org/1999/xlink">
 <defs>
  <style type="text/css">
*{stroke-linecap:butt;stroke-linejoin:round;}
  </style>
 </defs>
 <g id="figure_1">
  <g id="patch_1">
   <path d="M 0 180 
L 266.4 180 
L 266.4 0 
L 0 0 
z
" style="fill:none;"/>
  </g>
  <g id="axes_1">
   <g id="patch_2">
    <path d="M 50.55 132.2 
L 252.1 132.2 
L 252.1 14.3 
L 50.55 14.3 
z
" style="fill:none;"/>
   </g>
   <g id="PathCollection_1">
    <defs>
     <path d="M 0 3 
C 0.795609 3 1.55874 2.683901 2.12132 2.12132 
C 2.683901 1.55874 3 0.795609 3 0 
C 3 -0.795609 2.683901 -1.55874 2.12132 -2.12132 
C 1.55874 -2.683901 0.795609 -3 0 -3 
C -0.795609 -3 -1.55874 -2.683901 -2.12132 -2.12132 
C -2.683901 -1.55874 -3 -0.795609 -3 0 
C -3 0.795609 -2.683901 1.55874 -2.12132 2.12132 
C -1.55874 2.683901 -0.795609 3 0 3 
z
" id="m39fa9001e3" style="stroke:#008080;stroke-opacity:0.5;"/>
    </defs>
    <g clip-path="url(#p4e0cd3bdf6)">
     <use style="fill:#008080;fill-opacity:0.5;stroke:#008080;stroke-opacity:0.5;" x="187.323513" xlink:href="#m39fa9001e3" y="53.724251"/>
     <use style="fill:#008080;fill-opacity:0.5;stroke:#008080;stroke-opacity:0.5;" x="112.139894" xlink:href="#m39fa9001e3" y="112.86676"/>
     <use style="fill:#008080;fill-opacity:0.5;stroke:#008080;stroke-opacity:0.5;" x="101.276737" xlink:href="#m39fa9001e3" y="113.739913"/>
     <use style="fill:#008080;fill-opacity:0.5;stroke:#008080;stroke-opacity:0.5;" x="160.727265" xlink:href="#m39fa9001e3" y="72.140849"/>
     <use style="fill:#008080;fill-opacity:0.5;stroke:#008080;stroke-opacity:0.5;" x="191.537701" xlink:href="#m39fa9001e3" y="44.684284"/>
     <use style="fill:#008080;fill-opacity:0.5;stroke:#008080;stroke-opacity:0.5;" x="137.236006" xlink:href="#m39fa9001e3" y="83.353206"/>
     <use style="fill:#008080;fill-opacity:0.5;stroke:#008080;stroke-opacity:0.5;" x="239.414113" xlink:href="#m39fa9001e3" y="21.01924"/>
     <use style="fill:#008080;fill-opacity:0.5;stroke:#008080;stroke-opacity:0.5;" x="185.190849" xlink:href="#m39fa9001e3" y="49.812143"/>
     <use style="fill:#008080;fill-opacity:0.5;stroke:#008080;stroke-opacity:0.5;" x="147.831204" xlink:href="#m39fa9001e3" y="80.874027"/>
     <use style="fill:#008080;fill-opacity:0.5;stroke:#008080;stroke-opacity:0.5;" x="131.557987" xlink:href="#m39fa9001e3" y="84.247344"/>
     <use style="fill:#008080;fill-opacity:0.5;stroke:#008080;stroke-opacity:0.5;" x="122.590936" xlink:href="#m39fa9001e3" y="95.623982"/>
     <use style="fill:#008080;fill-opacity:0.5;stroke:#008080;stroke-opacity:0.5;" x="193.293153" xlink:href="#m39fa9001e3" y="58.238188"/>
     <use style="fill:#008080;fill-opacity:0.5;stroke:#008080;stroke-opacity:0.5;" x="140.06976" xlink:href="#m39fa9001e3" y="82.846752"/>
     <use style="fill:#008080;fill-opacity:0.5;stroke:#008080;stroke-opacity:0.5;" x="70.645982" xlink:href="#m39fa9001e3" y="119.231487"/>
     <use style="fill:#008080;fill-opacity:0.5;stroke:#008080;stroke-opacity:0.5;" x="132.643927" xlink:href="#m39fa9001e3" y="83.292792"/>
     <use style="fill:#008080;fill-opacity:0.5;stroke:#008080;stroke-opacity:0.5;" x="194.932249" xlink:href="#m39fa9001e3" y="47.81354"/>
     <use style="fill:#008080;fill-opacity:0.5;stroke:#008080;stroke-opacity:0.5;" x="93.148826" xlink:href="#m39fa9001e3" y="95.711978"/>
     <use style="fill:#008080;fill-opacity:0.5;stroke:#008080;stroke-opacity:0.5;" x="91.85891" xlink:href="#m39fa9001e3" y="107.377291"/>
     <use style="fill:#008080;fill-opacity:0.5;stroke:#008080;stroke-opacity:0.5;" x="157.106072" xlink:href="#m39fa9001e3" y="65.080075"/>
     <use style="fill:#008080;fill-opacity:0.5;stroke:#008080;stroke-opacity:0.5;" x="157.156682" xlink:href="#m39fa9001e3" y="58.120611"/>
     <use style="fill:#008080;fill-opacity:0.5;stroke:#008080;stroke-opacity:0.5;" x="175.950921" xlink:href="#m39fa9001e3" y="66.267538"/>
     <use style="fill:#008080;fill-opacity:0.5;stroke:#008080;stroke-opacity:0.5;" x="215.350435" xlink:href="#m39fa9001e3" y="41.201581"/>
     <use style="fill:#008080;fill-opacity:0.5;stroke:#008080;stroke-opacity:0.5;" x="192.451337" xlink:href="#m39fa9001e3" y="39.644716"/>
     <use style="fill:#008080;fill-opacity:0.5;stroke:#008080;stroke-opacity:0.5;" x="171.667535" xlink:href="#m39fa9001e3" y="66.11088"/>
     <use style="fill:#008080;fill-opacity:0.5;stroke:#008080;stroke-opacity:0.5;" x="192.082694" xlink:href="#m39fa9001e3" y="49.296436"/>
     <use style="fill:#008080;fill-opacity:0.5;stroke:#008080;stroke-opacity:0.5;" x="118.886245" xlink:href="#m39fa9001e3" y="87.534609"/>
     <use style="fill:#008080;fill-opacity:0.5;stroke:#008080;stroke-opacity:0.5;" x="126.000912" xlink:href="#m39fa9001e3" y="84.244583"/>
     <use style="fill:#008080;fill-opacity:0.5;stroke:#008080;stroke-opacity:0.5;" x="101.535413" xlink:href="#m39fa9001e3" y="94.182734"/>
     <use style="fill:#008080;fill-opacity:0.5;stroke:#008080;stroke-opacity:0.5;" x="113.527787" xlink:href="#m39fa9001e3" y="88.407032"/>
     <use style="fill:#008080;fill-opacity:0.5;stroke:#008080;stroke-opacity:0.5;" x="175.323398" xlink:href="#m39fa9001e3" y="53.640894"/>
     <use style="fill:#008080;fill-opacity:0.5;stroke:#008080;stroke-opacity:0.5;" x="76.587501" xlink:href="#m39fa9001e3" y="123.071634"/>
     <use style="fill:#008080;fill-opacity:0.5;stroke:#008080;stroke-opacity:0.5;" x="139.177247" xlink:href="#m39fa9001e3" y="76.858862"/>
    </g>
   </g>
   <g id="matplotlib.axis_1">
    <g id="xtick_1">
     <g id="line2d_1">
      <defs>
       <path d="M 0 0 
L 0 3.5 
" id="m23ccb1ec30" style="stroke:#000000;stroke-width:0.8;"/>
      </defs>
      <g>
       <use style="stroke:#000000;stroke-width:0.8;" x="59.711364" xlink:href="#m23ccb1ec30" y="132.2"/>
      </g>
     </g>
     <g id="text_1">
      <!-- 0 -->
      <defs>
       <path d="M 31.78125 66.40625 
Q 24.171875 66.40625 20.328125 58.90625 
Q 16.5 51.421875 16.5 36.375 
Q 16.5 21.390625 20.328125 13.890625 
Q 24.171875 6.390625 31.78125 6.390625 
Q 39.453125 6.390625 43.28125 13.890625 
Q 47.125 21.390625 47.125 36.375 
Q 47.125 51.421875 43.28125 58.90625 
Q 39.453125 66.40625 31.78125 66.40625 
z
M 31.78125 74.21875 
Q 44.046875 74.21875 50.515625 64.515625 
Q 56.984375 54.828125 56.984375 36.375 
Q 56.984375 17.96875 50.515625 8.265625 
Q 44.046875 -1.421875 31.78125 -1.421875 
Q 19.53125 -1.421875 13.0625 8.265625 
Q 6.59375 17.96875 6.59375 36.375 
Q 6.59375 54.828125 13.0625 64.515625 
Q 19.53125 74.21875 31.78125 74.21875 
z
" id="DejaVuSans-48"/>
      </defs>
      <g transform="translate(56.530114 146.798438)scale(0.1 -0.1)">
       <use xlink:href="#DejaVuSans-48"/>
      </g>
     </g>
    </g>
    <g id="xtick_2">
     <g id="line2d_2">
      <g>
       <use style="stroke:#000000;stroke-width:0.8;" x="96.356818" xlink:href="#m23ccb1ec30" y="132.2"/>
      </g>
     </g>
     <g id="text_2">
      <!-- 2 -->
      <defs>
       <path d="M 19.1875 8.296875 
L 53.609375 8.296875 
L 53.609375 0 
L 7.328125 0 
L 7.328125 8.296875 
Q 12.9375 14.109375 22.625 23.890625 
Q 32.328125 33.6875 34.8125 36.53125 
Q 39.546875 41.84375 41.421875 45.53125 
Q 43.3125 49.21875 43.3125 52.78125 
Q 43.3125 58.59375 39.234375 62.25 
Q 35.15625 65.921875 28.609375 65.921875 
Q 23.96875 65.921875 18.8125 64.3125 
Q 13.671875 62.703125 7.8125 59.421875 
L 7.8125 69.390625 
Q 13.765625 71.78125 18.9375 73 
Q 24.125 74.21875 28.421875 74.21875 
Q 39.75 74.21875 46.484375 68.546875 
Q 53.21875 62.890625 53.21875 53.421875 
Q 53.21875 48.921875 51.53125 44.890625 
Q 49.859375 40.875 45.40625 35.40625 
Q 44.1875 33.984375 37.640625 27.21875 
Q 31.109375 20.453125 19.1875 8.296875 
z
" id="DejaVuSans-50"/>
      </defs>
      <g transform="translate(93.175568 146.798438)scale(0.1 -0.1)">
       <use xlink:href="#DejaVuSans-50"/>
      </g>
     </g>
    </g>
    <g id="xtick_3">
     <g id="line2d_3">
      <g>
       <use style="stroke:#000000;stroke-width:0.8;" x="133.002273" xlink:href="#m23ccb1ec30" y="132.2"/>
      </g>
     </g>
     <g id="text_3">
      <!-- 4 -->
      <defs>
       <path d="M 37.796875 64.3125 
L 12.890625 25.390625 
L 37.796875 25.390625 
z
M 35.203125 72.90625 
L 47.609375 72.90625 
L 47.609375 25.390625 
L 58.015625 25.390625 
L 58.015625 17.1875 
L 47.609375 17.1875 
L 47.609375 0 
L 37.796875 0 
L 37.796875 17.1875 
L 4.890625 17.1875 
L 4.890625 26.703125 
z
" id="DejaVuSans-52"/>
      </defs>
      <g transform="translate(129.821023 146.798438)scale(0.1 -0.1)">
       <use xlink:href="#DejaVuSans-52"/>
      </g>
     </g>
    </g>
    <g id="xtick_4">
     <g id="line2d_4">
      <g>
       <use style="stroke:#000000;stroke-width:0.8;" x="169.647727" xlink:href="#m23ccb1ec30" y="132.2"/>
      </g>
     </g>
     <g id="text_4">
      <!-- 6 -->
      <defs>
       <path d="M 33.015625 40.375 
Q 26.375 40.375 22.484375 35.828125 
Q 18.609375 31.296875 18.609375 23.390625 
Q 18.609375 15.53125 22.484375 10.953125 
Q 26.375 6.390625 33.015625 6.390625 
Q 39.65625 6.390625 43.53125 10.953125 
Q 47.40625 15.53125 47.40625 23.390625 
Q 47.40625 31.296875 43.53125 35.828125 
Q 39.65625 40.375 33.015625 40.375 
z
M 52.59375 71.296875 
L 52.59375 62.3125 
Q 48.875 64.0625 45.09375 64.984375 
Q 41.3125 65.921875 37.59375 65.921875 
Q 27.828125 65.921875 22.671875 59.328125 
Q 17.53125 52.734375 16.796875 39.40625 
Q 19.671875 43.65625 24.015625 45.921875 
Q 28.375 48.1875 33.59375 48.1875 
Q 44.578125 48.1875 50.953125 41.515625 
Q 57.328125 34.859375 57.328125 23.390625 
Q 57.328125 12.15625 50.6875 5.359375 
Q 44.046875 -1.421875 33.015625 -1.421875 
Q 20.359375 -1.421875 13.671875 8.265625 
Q 6.984375 17.96875 6.984375 36.375 
Q 6.984375 53.65625 15.1875 63.9375 
Q 23.390625 74.21875 37.203125 74.21875 
Q 40.921875 74.21875 44.703125 73.484375 
Q 48.484375 72.75 52.59375 71.296875 
z
" id="DejaVuSans-54"/>
      </defs>
      <g transform="translate(166.466477 146.798438)scale(0.1 -0.1)">
       <use xlink:href="#DejaVuSans-54"/>
      </g>
     </g>
    </g>
    <g id="xtick_5">
     <g id="line2d_5">
      <g>
       <use style="stroke:#000000;stroke-width:0.8;" x="206.293182" xlink:href="#m23ccb1ec30" y="132.2"/>
      </g>
     </g>
     <g id="text_5">
      <!-- 8 -->
      <defs>
       <path d="M 31.78125 34.625 
Q 24.75 34.625 20.71875 30.859375 
Q 16.703125 27.09375 16.703125 20.515625 
Q 16.703125 13.921875 20.71875 10.15625 
Q 24.75 6.390625 31.78125 6.390625 
Q 38.8125 6.390625 42.859375 10.171875 
Q 46.921875 13.96875 46.921875 20.515625 
Q 46.921875 27.09375 42.890625 30.859375 
Q 38.875 34.625 31.78125 34.625 
z
M 21.921875 38.8125 
Q 15.578125 40.375 12.03125 44.71875 
Q 8.5 49.078125 8.5 55.328125 
Q 8.5 64.0625 14.71875 69.140625 
Q 20.953125 74.21875 31.78125 74.21875 
Q 42.671875 74.21875 48.875 69.140625 
Q 55.078125 64.0625 55.078125 55.328125 
Q 55.078125 49.078125 51.53125 44.71875 
Q 48 40.375 41.703125 38.8125 
Q 48.828125 37.15625 52.796875 32.3125 
Q 56.78125 27.484375 56.78125 20.515625 
Q 56.78125 9.90625 50.3125 4.234375 
Q 43.84375 -1.421875 31.78125 -1.421875 
Q 19.734375 -1.421875 13.25 4.234375 
Q 6.78125 9.90625 6.78125 20.515625 
Q 6.78125 27.484375 10.78125 32.3125 
Q 14.796875 37.15625 21.921875 38.8125 
z
M 18.3125 54.390625 
Q 18.3125 48.734375 21.84375 45.5625 
Q 25.390625 42.390625 31.78125 42.390625 
Q 38.140625 42.390625 41.71875 45.5625 
Q 45.3125 48.734375 45.3125 54.390625 
Q 45.3125 60.0625 41.71875 63.234375 
Q 38.140625 66.40625 31.78125 66.40625 
Q 25.390625 66.40625 21.84375 63.234375 
Q 18.3125 60.0625 18.3125 54.390625 
z
" id="DejaVuSans-56"/>
      </defs>
      <g transform="translate(203.111932 146.798438)scale(0.1 -0.1)">
       <use xlink:href="#DejaVuSans-56"/>
      </g>
     </g>
    </g>
    <g id="xtick_6">
     <g id="line2d_6">
      <g>
       <use style="stroke:#000000;stroke-width:0.8;" x="242.938636" xlink:href="#m23ccb1ec30" y="132.2"/>
      </g>
     </g>
     <g id="text_6">
      <!-- 10 -->
      <defs>
       <path d="M 12.40625 8.296875 
L 28.515625 8.296875 
L 28.515625 63.921875 
L 10.984375 60.40625 
L 10.984375 69.390625 
L 28.421875 72.90625 
L 38.28125 72.90625 
L 38.28125 8.296875 
L 54.390625 8.296875 
L 54.390625 0 
L 12.40625 0 
z
" id="DejaVuSans-49"/>
      </defs>
      <g transform="translate(236.576136 146.798438)scale(0.1 -0.1)">
       <use xlink:href="#DejaVuSans-49"/>
       <use x="63.623047" xlink:href="#DejaVuSans-48"/>
      </g>
     </g>
    </g>
    <g id="text_7">
     <!-- $X$ -->
     <defs>
      <path d="M 13.71875 72.90625 
L 23.6875 72.90625 
L 36.1875 46.578125 
L 58.796875 72.90625 
L 70.3125 72.90625 
L 40.28125 38.09375 
L 58.40625 0 
L 48.484375 0 
L 33.796875 30.71875 
L 7.171875 0 
L -4.296875 0 
L 29.78125 39.203125 
z
" id="DejaVuSans-Oblique-88"/>
     </defs>
     <g transform="translate(145.805 165.035625)scale(0.16 -0.16)">
      <use transform="translate(0 0.09375)" xlink:href="#DejaVuSans-Oblique-88"/>
     </g>
    </g>
   </g>
   <g id="matplotlib.axis_2">
    <g id="ytick_1">
     <g id="line2d_7">
      <defs>
       <path d="M 0 0 
L -3.5 0 
" id="m73bf3d3c73" style="stroke:#000000;stroke-width:0.8;"/>
      </defs>
      <g>
       <use style="stroke:#000000;stroke-width:0.8;" x="50.55" xlink:href="#m73bf3d3c73" y="106.947856"/>
      </g>
     </g>
     <g id="text_8">
      <!-- 5 -->
      <defs>
       <path d="M 10.796875 72.90625 
L 49.515625 72.90625 
L 49.515625 64.59375 
L 19.828125 64.59375 
L 19.828125 46.734375 
Q 21.96875 47.46875 24.109375 47.828125 
Q 26.265625 48.1875 28.421875 48.1875 
Q 40.625 48.1875 47.75 41.5 
Q 54.890625 34.8125 54.890625 23.390625 
Q 54.890625 11.625 47.5625 5.09375 
Q 40.234375 -1.421875 26.90625 -1.421875 
Q 22.3125 -1.421875 17.546875 -0.640625 
Q 12.796875 0.140625 7.71875 1.703125 
L 7.71875 11.625 
Q 12.109375 9.234375 16.796875 8.0625 
Q 21.484375 6.890625 26.703125 6.890625 
Q 35.15625 6.890625 40.078125 11.328125 
Q 45.015625 15.765625 45.015625 23.390625 
Q 45.015625 31 40.078125 35.4375 
Q 35.15625 39.890625 26.703125 39.890625 
Q 22.75 39.890625 18.8125 39.015625 
Q 14.890625 38.140625 10.796875 36.28125 
z
" id="DejaVuSans-53"/>
      </defs>
      <g transform="translate(37.1875 110.747075)scale(0.1 -0.1)">
       <use xlink:href="#DejaVuSans-53"/>
      </g>
     </g>
    </g>
    <g id="ytick_2">
     <g id="line2d_8">
      <g>
       <use style="stroke:#000000;stroke-width:0.8;" x="50.55" xlink:href="#m73bf3d3c73" y="79.438604"/>
      </g>
     </g>
     <g id="text_9">
      <!-- 10 -->
      <g transform="translate(30.825 83.237823)scale(0.1 -0.1)">
       <use xlink:href="#DejaVuSans-49"/>
       <use x="63.623047" xlink:href="#DejaVuSans-48"/>
      </g>
     </g>
    </g>
    <g id="ytick_3">
     <g id="line2d_9">
      <g>
       <use style="stroke:#000000;stroke-width:0.8;" x="50.55" xlink:href="#m73bf3d3c73" y="51.929351"/>
      </g>
     </g>
     <g id="text_10">
      <!-- 15 -->
      <g transform="translate(30.825 55.72857)scale(0.1 -0.1)">
       <use xlink:href="#DejaVuSans-49"/>
       <use x="63.623047" xlink:href="#DejaVuSans-53"/>
      </g>
     </g>
    </g>
    <g id="ytick_4">
     <g id="line2d_10">
      <g>
       <use style="stroke:#000000;stroke-width:0.8;" x="50.55" xlink:href="#m73bf3d3c73" y="24.420099"/>
      </g>
     </g>
     <g id="text_11">
      <!-- 20 -->
      <g transform="translate(30.825 28.219317)scale(0.1 -0.1)">
       <use xlink:href="#DejaVuSans-50"/>
       <use x="63.623047" xlink:href="#DejaVuSans-48"/>
      </g>
     </g>
    </g>
    <g id="text_12">
     <!-- $y$ -->
     <defs>
      <path d="M 24.8125 -5.078125 
Q 18.5625 -15.578125 14.625 -18.1875 
Q 10.6875 -20.796875 4.59375 -20.796875 
L -2.484375 -20.796875 
L -0.984375 -13.28125 
L 4.203125 -13.28125 
Q 7.953125 -13.28125 10.59375 -11.234375 
Q 13.234375 -9.1875 16.5 -3.21875 
L 19.28125 2 
L 7.171875 54.6875 
L 16.703125 54.6875 
L 25.78125 12.796875 
L 50.875 54.6875 
L 60.296875 54.6875 
z
" id="DejaVuSans-Oblique-121"/>
     </defs>
     <g transform="translate(23.465 78.05)rotate(-90)scale(0.16 -0.16)">
      <use transform="translate(0 0.3125)" xlink:href="#DejaVuSans-Oblique-121"/>
     </g>
    </g>
   </g>
   <g id="line2d_11">
    <path clip-path="url(#p4e0cd3bdf6)" d="M 59.711364 126.840909 
L 242.938636 19.659091 
L 242.938636 19.659091 
" style="fill:none;stroke:#000000;stroke-linecap:square;stroke-width:2;"/>
   </g>
   <g id="patch_3">
    <path d="M 50.55 132.2 
L 50.55 14.3 
" style="fill:none;stroke:#000000;stroke-linecap:square;stroke-linejoin:miter;stroke-width:0.8;"/>
   </g>
   <g id="patch_4">
    <path d="M 252.1 132.2 
L 252.1 14.3 
" style="fill:none;stroke:#000000;stroke-linecap:square;stroke-linejoin:miter;stroke-width:0.8;"/>
   </g>
   <g id="patch_5">
    <path d="M 50.55 132.2 
L 252.1 132.2 
" style="fill:none;stroke:#000000;stroke-linecap:square;stroke-linejoin:miter;stroke-width:0.8;"/>
   </g>
   <g id="patch_6">
    <path d="M 50.55 14.3 
L 252.1 14.3 
" style="fill:none;stroke:#000000;stroke-linecap:square;stroke-linejoin:miter;stroke-width:0.8;"/>
   </g>
  </g>
 </g>
 <defs>
  <clipPath id="p4e0cd3bdf6">
   <rect height="117.9" width="201.55" x="50.55" y="14.3"/>
  </clipPath>
 </defs>
</svg>
